# xmcd
#
# Track frame offsets: 
#        150
#        35932
#        56033
#        86033
#        100582
#        123330
#        152424
#        173424
#        201919
#        231710
#
# Disc length: 3357 seconds
#
# Revision: 0
# Processed by: cddbd v1.5.2PL0 Copyright (c) Steve Scherf et al.
# Submitted via: ExactAudioCopy v1.3
#
DISCID=830d1b0a
DTITLE=Blues Cousins - Sleepless Night
DYEAR=2018
DGENRE=Electric Blues
TTITLE0=The Dream
TTITLE1=Love Matters
TTITLE2=The Brother
TTITLE3=Sleepless Night
TTITLE4=What You Gonna Do
TTITLE5=Thew Chocolate
TTITLE6=I'll Be Waiting
TTITLE7=You Don't Know
TTITLE8=5 Long Years
TTITLE9=Let It Go
EXTD=
EXTT0=
EXTT1=
EXTT2=
EXTT3=
EXTT4=
EXTT5=
EXTT6=
EXTT7=
EXTT8=
EXTT9=
PLAYORDER=
